<?xml version="1.0" standalone="no"?>
<!DOCTYPE svg PUBLIC "-//W3C//DTD SVG 20010904//EN"
 "http://www.w3.org/TR/2001/REC-SVG-20010904/DTD/svg10.dtd">
<svg version="1.0" xmlns="http://www.w3.org/2000/svg"
 width="90.000000pt" height="91.000000pt" viewBox="0 0 90.000000 91.000000"
 preserveAspectRatio="xMidYMid meet">

<g transform="translate(0.000000,91.000000) scale(0.100000,-0.100000)"
fill="#000000" stroke="none">
<path d="M244 718 c-46 -35 -82 -77 -134 -156 -80 -120 -111 -230 -74 -266 22
-22 50 -20 112 9 49 23 55 30 83 92 62 140 121 253 155 297 l35 46 -74 0 c-61
0 -79 -4 -103 -22z"/>
<path d="M411 694 c-23 -26 -41 -50 -40 -53 0 -6 106 -93 120 -99 11 -5 109
61 109 74 0 5 -23 36 -51 67 -64 72 -83 73 -138 11z"/>
<path d="M599 557 c-8 -7 -28 -22 -44 -35 l-29 -23 21 -20 21 -21 46 27 c25
15 46 29 46 31 0 9 -32 54 -39 54 -3 0 -13 -6 -22 -13z"/>
<path d="M633 452 c-32 -27 -32 -27 -13 -49 22 -28 41 -29 70 -5 22 18 22 19
6 50 -9 18 -20 32 -24 32 -4 0 -21 -13 -39 -28z"/>
<path d="M691 361 l-24 -18 54 -71 c56 -74 69 -84 69 -54 -1 24 -55 155 -66
159 -5 1 -20 -6 -33 -16z"/>
</g>
</svg>
